<svg data-v-423bf9ae="" xmlns="http://www.w3.org/2000/svg" viewBox="0 0 302.75228062793957 60" class="font"><!----><!----><!----><g data-v-423bf9ae="" id="35ecf5e1-6575-48c7-8409-5cc021989608" fill="white" transform="matrix(6.116207689453325,0,0,6.116207689453325,-4.281345804054212,-14.984708415548418)"><path d="M0.70 10.23L0.70 10.23L0.70 9.32L0.70 9.32Q0.70 9.10 0.92 9.10L0.92 9.10L2.34 9.10L2.34 9.10Q2.56 9.10 2.56 9.32L2.56 9.32L2.56 9.91L2.56 9.91Q2.56 10.47 3.12 10.47L3.12 10.47L3.88 10.47L3.88 10.47Q4.44 10.47 4.44 9.91L4.44 9.91L4.44 8.50L1.08 7.40L1.08 7.40Q0.70 7.28 0.70 6.89L0.70 6.89L0.70 4.46L0.70 4.46Q0.70 3.48 1.22 2.96L1.22 2.96L1.22 2.96Q1.74 2.45 2.71 2.45L2.71 2.45L4.29 2.45L4.29 2.45Q5.28 2.45 5.79 2.96L5.79 2.96L5.79 2.96Q6.30 3.47 6.30 4.46L6.30 4.46L6.30 5.39L6.30 5.39Q6.30 5.61 6.08 5.61L6.08 5.61L4.66 5.61L4.66 5.61Q4.56 5.61 4.50 5.55L4.50 5.55L4.50 5.55Q4.44 5.49 4.44 5.39L4.44 5.39L4.44 4.80L4.44 4.80Q4.44 4.25 3.88 4.25L3.88 4.25L3.11 4.25L3.11 4.25Q2.84 4.25 2.70 4.39L2.70 4.39L2.70 4.39Q2.55 4.53 2.55 4.80L2.55 4.80L2.55 6.00L5.93 7.08L5.93 7.08Q6.30 7.21 6.30 7.60L6.30 7.60L6.30 10.23L6.30 10.23Q6.30 11.22 5.79 11.74L5.79 11.74L5.79 11.74Q5.28 12.25 4.29 12.25L4.29 12.25L2.71 12.25L2.71 12.25Q1.74 12.25 1.22 11.73L1.22 11.73L1.22 11.73Q0.70 11.22 0.70 10.23ZM7.70 2.67L7.70 12.02L7.70 12.02Q7.70 12.25 7.92 12.25L7.92 12.25L12.37 12.25L12.37 12.25Q12.60 12.25 12.60 12.02L12.60 12.02L12.60 10.62L12.60 10.62Q12.60 10.40 12.37 10.40L12.37 10.40L9.60 10.40L9.60 2.67L9.60 2.67Q9.60 2.45 9.38 2.45L9.38 2.45L7.92 2.45L7.92 2.45Q7.82 2.45 7.76 2.51L7.76 2.51L7.76 2.51Q7.70 2.57 7.70 2.67L7.70 2.67ZM13.58 2.67L13.58 12.02L13.58 12.02Q13.58 12.25 13.80 12.25L13.80 12.25L15.26 12.25L15.26 12.25Q15.36 12.25 15.42 12.19L15.42 12.19L15.42 12.19Q15.48 12.13 15.48 12.02L15.48 12.02L15.48 2.67L15.48 2.67Q15.48 2.57 15.42 2.51L15.42 2.51L15.42 2.51Q15.36 2.45 15.26 2.45L15.26 2.45L13.80 2.45L13.80 2.45Q13.58 2.45 13.58 2.67L13.58 2.67ZM16.88 10.23L16.88 10.23L16.88 4.46L16.88 4.46Q16.88 3.47 17.40 2.96L17.40 2.96L17.40 2.96Q17.92 2.45 18.91 2.45L18.91 2.45L20.48 2.45L20.48 2.45Q21.46 2.45 21.98 2.96L21.98 2.96L21.98 2.96Q22.50 3.48 22.50 4.46L22.50 4.46L22.50 5.97L22.50 5.97Q22.50 6.08 22.44 6.14L22.44 6.14L22.44 6.14Q22.37 6.20 22.27 6.20L22.27 6.20L20.95 6.20L20.95 6.20Q20.73 6.20 20.73 5.97L20.73 5.97L20.73 4.83L20.73 4.83Q20.73 4.27 20.17 4.27L20.17 4.27L19.28 4.27L19.28 4.27Q18.72 4.27 18.72 4.83L18.72 4.83L18.72 9.91L18.72 9.91Q18.72 10.47 19.28 10.47L19.28 10.47L20.17 10.47L20.17 10.47Q20.73 10.47 20.73 9.91L20.73 9.91L20.73 8.72L20.73 8.72Q20.73 8.50 20.95 8.50L20.95 8.50L22.27 8.50L22.27 8.50Q22.37 8.50 22.44 8.56L22.44 8.56L22.44 8.56Q22.50 8.62 22.50 8.72L22.50 8.72L22.50 10.23L22.50 10.23Q22.50 11.22 21.98 11.73L21.98 11.73L21.98 11.73Q21.46 12.25 20.48 12.25L20.48 12.25L18.91 12.25L18.91 12.25Q17.92 12.25 17.40 11.74L17.40 11.74L17.40 11.74Q16.88 11.22 16.88 10.23ZM23.89 11.97L23.89 11.97L23.89 2.73L23.89 2.73Q23.89 2.45 24.17 2.45L24.17 2.45L25.52 2.45L25.52 2.45Q25.80 2.45 25.80 2.73L25.80 2.73L25.80 6.37L27.95 2.66L27.95 2.66Q28.07 2.45 28.27 2.45L28.27 2.45L29.74 2.45L29.74 2.45Q29.90 2.45 29.96 2.55L29.96 2.55L29.96 2.55Q30.02 2.65 29.94 2.79L29.94 2.79L27.56 6.97L30.10 11.93L30.10 11.93Q30.14 12.00 30.14 12.07L30.14 12.07L30.14 12.07Q30.14 12.11 30.11 12.15L30.11 12.15L30.11 12.15Q30.06 12.25 29.89 12.25L29.89 12.25L28.40 12.25L28.40 12.25Q28.18 12.25 28.08 12.04L28.08 12.04L26.32 8.58L25.80 9.58L25.80 11.97L25.80 11.97Q25.80 12.25 25.52 12.25L25.52 12.25L24.17 12.25L24.17 12.25Q23.89 12.25 23.89 11.97ZM31.39 12.02L31.39 12.02L31.39 2.67L31.39 2.67Q31.39 2.57 31.45 2.51L31.45 2.51L31.45 2.51Q31.51 2.45 31.62 2.45L31.62 2.45L34.98 2.45L34.98 2.45Q35.97 2.45 36.48 2.96L36.48 2.96L36.48 2.96Q37.00 3.47 37.00 4.46L37.00 4.46L37.00 7.21L37.00 7.21Q37.00 8.19 36.48 8.71L36.48 8.71L36.48 8.71Q35.97 9.22 34.98 9.23L34.98 9.23L33.22 9.24L33.22 12.04L33.22 12.04Q33.22 12.26 32.99 12.26L32.99 12.26L31.62 12.25L31.62 12.25Q31.51 12.25 31.45 12.19L31.45 12.19L31.45 12.19Q31.39 12.13 31.39 12.02ZM33.22 4.27L33.22 7.43L34.61 7.42L34.61 7.42Q35.17 7.42 35.17 6.86L35.17 6.86L35.17 4.82L35.17 4.82Q35.17 4.26 34.61 4.26L34.61 4.26L33.22 4.27ZM37.00 12.01L37.00 12.01L39.33 2.65L39.33 2.65Q39.37 2.45 39.57 2.45L39.57 2.45L41.51 2.45L41.51 2.45Q41.71 2.45 41.75 2.65L41.75 2.65L44.08 12.01L44.08 12.01Q44.09 12.06 44.09 12.09L44.09 12.09L44.09 12.09Q44.09 12.25 43.88 12.25L43.88 12.25L42.52 12.25L42.52 12.25Q42.34 12.25 42.30 12.05L42.30 12.05L41.85 10.29L39.22 10.29L38.79 12.05L38.79 12.05Q38.75 12.25 38.56 12.25L38.56 12.25L37.19 12.25L37.19 12.25Q36.99 12.25 36.99 12.10L36.99 12.10L36.99 12.10Q36.99 12.06 37.00 12.01ZM40.54 4.86L39.66 8.67L41.42 8.67L40.54 4.86ZM45.70 8.58L43.14 2.78L43.14 2.78Q43.11 2.71 43.11 2.65L43.11 2.65L43.11 2.65Q43.11 2.59 43.14 2.54L43.14 2.54L43.14 2.54Q43.20 2.45 43.36 2.45L43.36 2.45L44.76 2.45L44.76 2.45Q44.99 2.45 45.08 2.67L45.08 2.67L46.66 6.28L48.22 2.67L48.22 2.67Q48.31 2.45 48.54 2.45L48.54 2.45L49.94 2.45L49.94 2.45Q50.10 2.45 50.16 2.54L50.16 2.54L50.16 2.54Q50.20 2.59 50.20 2.65L50.20 2.65L50.20 2.65Q50.20 2.71 50.17 2.78L50.17 2.78L47.61 8.58L47.61 11.97L47.61 11.97Q47.61 12.25 47.33 12.25L47.33 12.25L45.98 12.25L45.98 12.25Q45.70 12.25 45.70 11.97L45.70 11.97L45.70 8.58Z"></path></g><!----><!----></svg>